<mxfile host="processflow.sharehoo.cn" modified="2021-04-20T10:12:28.446Z" agent="5.0 (Windows NT 10.0; Win64; x64) AppleWebKit/537.36 (KHTML, like Gecko) Chrome/89.0.4389.128 Safari/537.36 Edg/89.0.774.77" etag="yYfA30BUMS88E2nXdcJP" version="14.3.2" type="github">
  <diagram id="M0l7aAFdrB-QxnuUOPyK" name="第 1 页">
    <mxGraphModel dx="1422" dy="762" grid="1" gridSize="10" guides="1" tooltips="1" connect="1" arrows="1" fold="1" page="1" pageScale="1" pageWidth="827" pageHeight="1169" math="0" shadow="0">
      <root>
        <mxCell id="0" />
        <mxCell id="1" parent="0" />
        <mxCell id="fLSyI_FhJhtKWIM8-hyJ-1" value="" style="shape=table;html=1;whiteSpace=wrap;startSize=0;container=1;collapsible=0;childLayout=tableLayout;" vertex="1" parent="1">
          <mxGeometry x="254" y="340" width="160" height="160" as="geometry" />
        </mxCell>
        <mxCell id="fLSyI_FhJhtKWIM8-hyJ-2" value="" style="shape=partialRectangle;html=1;whiteSpace=wrap;collapsible=0;dropTarget=0;pointerEvents=0;fillColor=none;top=0;left=0;bottom=0;right=0;points=[[0,0.5],[1,0.5]];portConstraint=eastwest;" vertex="1" parent="fLSyI_FhJhtKWIM8-hyJ-1">
          <mxGeometry width="160" height="40" as="geometry" />
        </mxCell>
        <mxCell id="fLSyI_FhJhtKWIM8-hyJ-3" value="" style="shape=partialRectangle;html=1;whiteSpace=wrap;connectable=0;fillColor=none;top=0;left=0;bottom=0;right=0;overflow=hidden;" vertex="1" parent="fLSyI_FhJhtKWIM8-hyJ-2">
          <mxGeometry width="40" height="40" as="geometry" />
        </mxCell>
        <mxCell id="fLSyI_FhJhtKWIM8-hyJ-4" value="" style="shape=partialRectangle;html=1;whiteSpace=wrap;connectable=0;fillColor=#a20025;top=0;left=0;bottom=0;right=0;overflow=hidden;strokeColor=#6F0000;fontColor=#ffffff;" vertex="1" parent="fLSyI_FhJhtKWIM8-hyJ-2">
          <mxGeometry x="40" width="40" height="40" as="geometry" />
        </mxCell>
        <mxCell id="fLSyI_FhJhtKWIM8-hyJ-5" value="" style="shape=partialRectangle;html=1;whiteSpace=wrap;connectable=0;fillColor=#a20025;top=0;left=0;bottom=0;right=0;overflow=hidden;strokeColor=#6F0000;fontColor=#ffffff;" vertex="1" parent="fLSyI_FhJhtKWIM8-hyJ-2">
          <mxGeometry x="80" width="40" height="40" as="geometry" />
        </mxCell>
        <mxCell id="fLSyI_FhJhtKWIM8-hyJ-6" style="shape=partialRectangle;html=1;whiteSpace=wrap;connectable=0;fillColor=#a20025;top=0;left=0;bottom=0;right=0;overflow=hidden;strokeColor=#6F0000;fontColor=#ffffff;" vertex="1" parent="fLSyI_FhJhtKWIM8-hyJ-2">
          <mxGeometry x="120" width="40" height="40" as="geometry" />
        </mxCell>
        <mxCell id="fLSyI_FhJhtKWIM8-hyJ-7" value="" style="shape=partialRectangle;html=1;whiteSpace=wrap;collapsible=0;dropTarget=0;pointerEvents=0;fillColor=none;top=0;left=0;bottom=0;right=0;points=[[0,0.5],[1,0.5]];portConstraint=eastwest;" vertex="1" parent="fLSyI_FhJhtKWIM8-hyJ-1">
          <mxGeometry y="40" width="160" height="40" as="geometry" />
        </mxCell>
        <mxCell id="fLSyI_FhJhtKWIM8-hyJ-8" value="" style="shape=partialRectangle;html=1;whiteSpace=wrap;connectable=0;fillColor=#a20025;top=0;left=0;bottom=0;right=0;overflow=hidden;strokeColor=#6F0000;fontColor=#ffffff;" vertex="1" parent="fLSyI_FhJhtKWIM8-hyJ-7">
          <mxGeometry width="40" height="40" as="geometry" />
        </mxCell>
        <mxCell id="fLSyI_FhJhtKWIM8-hyJ-9" value="" style="shape=partialRectangle;html=1;whiteSpace=wrap;connectable=0;fillColor=#a20025;top=0;left=0;bottom=0;right=0;overflow=hidden;strokeColor=#6F0000;fontColor=#ffffff;" vertex="1" parent="fLSyI_FhJhtKWIM8-hyJ-7">
          <mxGeometry x="40" width="40" height="40" as="geometry" />
        </mxCell>
        <mxCell id="fLSyI_FhJhtKWIM8-hyJ-10" value="" style="shape=partialRectangle;html=1;whiteSpace=wrap;connectable=0;fillColor=#d80073;top=0;left=0;bottom=0;right=0;overflow=hidden;strokeColor=#A50040;fontColor=#ffffff;" vertex="1" parent="fLSyI_FhJhtKWIM8-hyJ-7">
          <mxGeometry x="80" width="40" height="40" as="geometry" />
        </mxCell>
        <mxCell id="fLSyI_FhJhtKWIM8-hyJ-11" style="shape=partialRectangle;html=1;whiteSpace=wrap;connectable=0;fillColor=none;top=0;left=0;bottom=0;right=0;overflow=hidden;" vertex="1" parent="fLSyI_FhJhtKWIM8-hyJ-7">
          <mxGeometry x="120" width="40" height="40" as="geometry" />
        </mxCell>
        <mxCell id="fLSyI_FhJhtKWIM8-hyJ-12" value="" style="shape=partialRectangle;html=1;whiteSpace=wrap;collapsible=0;dropTarget=0;pointerEvents=0;fillColor=none;top=0;left=0;bottom=0;right=0;points=[[0,0.5],[1,0.5]];portConstraint=eastwest;" vertex="1" parent="fLSyI_FhJhtKWIM8-hyJ-1">
          <mxGeometry y="80" width="160" height="40" as="geometry" />
        </mxCell>
        <mxCell id="fLSyI_FhJhtKWIM8-hyJ-13" value="" style="shape=partialRectangle;html=1;whiteSpace=wrap;connectable=0;fillColor=#a20025;top=0;left=0;bottom=0;right=0;overflow=hidden;strokeColor=#6F0000;fontColor=#ffffff;" vertex="1" parent="fLSyI_FhJhtKWIM8-hyJ-12">
          <mxGeometry width="40" height="40" as="geometry" />
        </mxCell>
        <mxCell id="fLSyI_FhJhtKWIM8-hyJ-14" value="" style="shape=partialRectangle;html=1;whiteSpace=wrap;connectable=0;fillColor=none;top=0;left=0;bottom=0;right=0;overflow=hidden;" vertex="1" parent="fLSyI_FhJhtKWIM8-hyJ-12">
          <mxGeometry x="40" width="40" height="40" as="geometry" />
        </mxCell>
        <mxCell id="fLSyI_FhJhtKWIM8-hyJ-15" value="" style="shape=partialRectangle;html=1;whiteSpace=wrap;connectable=0;fillColor=#a20025;top=0;left=0;bottom=0;right=0;overflow=hidden;strokeColor=#6F0000;fontColor=#ffffff;" vertex="1" parent="fLSyI_FhJhtKWIM8-hyJ-12">
          <mxGeometry x="80" width="40" height="40" as="geometry" />
        </mxCell>
        <mxCell id="fLSyI_FhJhtKWIM8-hyJ-16" style="shape=partialRectangle;html=1;whiteSpace=wrap;connectable=0;fillColor=none;top=0;left=0;bottom=0;right=0;overflow=hidden;" vertex="1" parent="fLSyI_FhJhtKWIM8-hyJ-12">
          <mxGeometry x="120" width="40" height="40" as="geometry" />
        </mxCell>
        <mxCell id="fLSyI_FhJhtKWIM8-hyJ-17" style="shape=partialRectangle;html=1;whiteSpace=wrap;collapsible=0;dropTarget=0;pointerEvents=0;fillColor=none;top=0;left=0;bottom=0;right=0;points=[[0,0.5],[1,0.5]];portConstraint=eastwest;" vertex="1" parent="fLSyI_FhJhtKWIM8-hyJ-1">
          <mxGeometry y="120" width="160" height="40" as="geometry" />
        </mxCell>
        <mxCell id="fLSyI_FhJhtKWIM8-hyJ-18" style="shape=partialRectangle;html=1;whiteSpace=wrap;connectable=0;fillColor=#a20025;top=0;left=0;bottom=0;right=0;overflow=hidden;strokeColor=#6F0000;fontColor=#ffffff;" vertex="1" parent="fLSyI_FhJhtKWIM8-hyJ-17">
          <mxGeometry width="40" height="40" as="geometry" />
        </mxCell>
        <mxCell id="fLSyI_FhJhtKWIM8-hyJ-19" style="shape=partialRectangle;html=1;whiteSpace=wrap;connectable=0;fillColor=none;top=0;left=0;bottom=0;right=0;overflow=hidden;" vertex="1" parent="fLSyI_FhJhtKWIM8-hyJ-17">
          <mxGeometry x="40" width="40" height="40" as="geometry" />
        </mxCell>
        <mxCell id="fLSyI_FhJhtKWIM8-hyJ-20" style="shape=partialRectangle;html=1;whiteSpace=wrap;connectable=0;fillColor=none;top=0;left=0;bottom=0;right=0;overflow=hidden;" vertex="1" parent="fLSyI_FhJhtKWIM8-hyJ-17">
          <mxGeometry x="80" width="40" height="40" as="geometry" />
        </mxCell>
        <mxCell id="fLSyI_FhJhtKWIM8-hyJ-21" style="shape=partialRectangle;html=1;whiteSpace=wrap;connectable=0;fillColor=#a20025;top=0;left=0;bottom=0;right=0;overflow=hidden;strokeColor=#6F0000;fontColor=#ffffff;" vertex="1" parent="fLSyI_FhJhtKWIM8-hyJ-17">
          <mxGeometry x="120" width="40" height="40" as="geometry" />
        </mxCell>
        <mxCell id="fLSyI_FhJhtKWIM8-hyJ-22" value="X" style="text;html=1;strokeColor=#3700CC;fillColor=#6a00ff;align=center;verticalAlign=middle;whiteSpace=wrap;rounded=0;fontColor=#ffffff;" vertex="1" parent="1">
          <mxGeometry x="314" y="270" width="40" height="20" as="geometry" />
        </mxCell>
        <mxCell id="fLSyI_FhJhtKWIM8-hyJ-23" value="Y" style="text;html=1;strokeColor=#3700CC;fillColor=#6a00ff;align=center;verticalAlign=middle;whiteSpace=wrap;rounded=0;fontColor=#ffffff;" vertex="1" parent="1">
          <mxGeometry x="154" y="410" width="40" height="20" as="geometry" />
        </mxCell>
        <mxCell id="fLSyI_FhJhtKWIM8-hyJ-24" value="0" style="text;html=1;strokeColor=none;fillColor=none;align=center;verticalAlign=middle;whiteSpace=wrap;rounded=0;" vertex="1" parent="1">
          <mxGeometry x="214" y="350" width="40" height="20" as="geometry" />
        </mxCell>
        <mxCell id="fLSyI_FhJhtKWIM8-hyJ-25" value="1" style="text;html=1;strokeColor=none;fillColor=none;align=center;verticalAlign=middle;whiteSpace=wrap;rounded=0;" vertex="1" parent="1">
          <mxGeometry x="214" y="390" width="40" height="20" as="geometry" />
        </mxCell>
        <mxCell id="fLSyI_FhJhtKWIM8-hyJ-26" value="2" style="text;html=1;strokeColor=none;fillColor=none;align=center;verticalAlign=middle;whiteSpace=wrap;rounded=0;" vertex="1" parent="1">
          <mxGeometry x="214" y="430" width="40" height="20" as="geometry" />
        </mxCell>
        <mxCell id="fLSyI_FhJhtKWIM8-hyJ-27" value="3" style="text;html=1;strokeColor=none;fillColor=none;align=center;verticalAlign=middle;whiteSpace=wrap;rounded=0;" vertex="1" parent="1">
          <mxGeometry x="214" y="470" width="40" height="20" as="geometry" />
        </mxCell>
        <mxCell id="fLSyI_FhJhtKWIM8-hyJ-28" value="0" style="text;html=1;strokeColor=none;fillColor=none;align=center;verticalAlign=middle;whiteSpace=wrap;rounded=0;" vertex="1" parent="1">
          <mxGeometry x="254" y="310" width="40" height="20" as="geometry" />
        </mxCell>
        <mxCell id="fLSyI_FhJhtKWIM8-hyJ-29" value="1" style="text;html=1;strokeColor=none;fillColor=none;align=center;verticalAlign=middle;whiteSpace=wrap;rounded=0;" vertex="1" parent="1">
          <mxGeometry x="294" y="310" width="40" height="20" as="geometry" />
        </mxCell>
        <mxCell id="fLSyI_FhJhtKWIM8-hyJ-30" value="2" style="text;html=1;strokeColor=none;fillColor=none;align=center;verticalAlign=middle;whiteSpace=wrap;rounded=0;" vertex="1" parent="1">
          <mxGeometry x="334" y="310" width="40" height="20" as="geometry" />
        </mxCell>
        <mxCell id="fLSyI_FhJhtKWIM8-hyJ-31" value="3" style="text;html=1;strokeColor=none;fillColor=none;align=center;verticalAlign=middle;whiteSpace=wrap;rounded=0;" vertex="1" parent="1">
          <mxGeometry x="374" y="310" width="40" height="20" as="geometry" />
        </mxCell>
        <mxCell id="fLSyI_FhJhtKWIM8-hyJ-32" value="" style="triangle;whiteSpace=wrap;html=1;rotation=-90;fillColor=#1ba1e2;strokeColor=#006EAF;fontColor=#ffffff;" vertex="1" parent="1">
          <mxGeometry x="259" y="425" width="30" height="30" as="geometry" />
        </mxCell>
        <mxCell id="fLSyI_FhJhtKWIM8-hyJ-33" value="" style="triangle;whiteSpace=wrap;html=1;rotation=-90;fillColor=#1ba1e2;strokeColor=#006EAF;fontColor=#ffffff;" vertex="1" parent="1">
          <mxGeometry x="379" y="385" width="30" height="30" as="geometry" />
        </mxCell>
        <mxCell id="fLSyI_FhJhtKWIM8-hyJ-34" value="1 不能放" style="text;html=1;strokeColor=#6F0000;fillColor=#a20025;align=center;verticalAlign=middle;whiteSpace=wrap;rounded=0;fontColor=#ffffff;" vertex="1" parent="1">
          <mxGeometry x="254" y="170" width="150" height="20" as="geometry" />
        </mxCell>
        <mxCell id="fLSyI_FhJhtKWIM8-hyJ-35" value="3 有皇后" style="text;html=1;strokeColor=#6F0000;fillColor=#a20025;align=center;verticalAlign=middle;whiteSpace=wrap;rounded=0;fontColor=#ffffff;" vertex="1" parent="1">
          <mxGeometry x="254" y="200" width="150" height="20" as="geometry" />
        </mxCell>
        <mxCell id="fLSyI_FhJhtKWIM8-hyJ-36" value="" style="triangle;whiteSpace=wrap;html=1;rotation=-90;fillColor=#1ba1e2;strokeColor=#006EAF;fontColor=#ffffff;" vertex="1" parent="1">
          <mxGeometry x="299" y="345" width="30" height="30" as="geometry" />
        </mxCell>
        <mxCell id="fLSyI_FhJhtKWIM8-hyJ-37" value="" style="triangle;whiteSpace=wrap;html=1;rotation=-90;fillColor=#1ba1e2;strokeColor=#006EAF;fontColor=#ffffff;" vertex="1" parent="1">
          <mxGeometry x="339" y="465" width="30" height="30" as="geometry" />
        </mxCell>
      </root>
    </mxGraphModel>
  </diagram>
</mxfile>
